<svg width="225" height="129" viewBox="0 0 225 129" fill="none" xmlns="http://www.w3.org/2000/svg">
<g filter="url(#filter0_f_114_72)">
<path d="M39.5562 70.5601C37.0653 70.5601 34.255 69.9853 31.1254 68.8357C27.9958 67.7179 25.968 66.6481 25.0418 65.6262L28.0597 59.0636C28.8581 59.6704 30.1514 60.2292 31.9398 60.7402C33.7281 61.2511 35.261 61.5066 36.5384 61.5066C37.8158 61.5066 38.9175 61.331 39.8436 60.9797C40.8017 60.6603 41.5362 60.2452 42.0471 59.7342C42.5581 59.2552 42.9733 58.6484 43.2926 57.9139C43.612 57.2114 43.8036 56.5727 43.8674 55.9978C43.9632 55.423 44.0271 54.7843 44.059 54.0818V50.0101C41.3446 52.8203 38.0393 54.2255 34.1433 54.2255C28.874 54.2255 25.0099 52.4211 22.5509 48.8125C20.0919 45.2039 18.8624 40.1901 18.8624 33.7712C18.8624 30.7693 19.1978 28.007 19.8684 25.4841C20.539 22.9293 21.513 20.6939 22.7904 18.7778C24.0998 16.8298 25.7923 15.3128 27.8681 14.2271C29.9438 13.1093 32.2911 12.5505 34.9097 12.5505C38.8696 12.5505 42.3026 13.4287 45.2087 15.1851L46.023 12.9337H53.3521L62.3577 13.3648V17.8676L59.4836 19.8795V51.8783C59.4836 64.3328 52.8411 70.5601 39.5562 70.5601ZM41.0891 45.5072C42.0471 45.5072 43.0371 45.2358 44.059 44.6929V19.4484C43.2926 19.2887 42.59 19.2089 41.9513 19.2089C37.704 19.2408 35.5644 22.5142 35.5324 29.0289V36.4537C35.5324 38.4975 35.8039 40.254 36.3468 41.723C37.3048 44.2458 38.8856 45.5072 41.0891 45.5072ZM86.8564 49.3873L86.3773 49.9143C86.058 50.2975 85.563 50.7446 84.8924 51.2555C84.2537 51.7665 83.5032 52.2774 82.641 52.7884C81.8106 53.2994 80.7887 53.7305 79.5752 54.0818C78.3617 54.465 77.1162 54.6566 75.8388 54.6566C67.2164 54.6566 62.9052 50.3933 62.9052 41.8667C62.9052 40.2061 63.2086 38.6892 63.8154 37.316C64.4221 35.9108 65.2045 34.7292 66.1626 33.7712C67.1206 32.8131 68.2703 31.9669 69.6115 31.2324C70.9528 30.4659 72.2941 29.8751 73.6353 29.46C75.0085 29.0129 76.4456 28.6456 77.9465 28.3582C79.4475 28.0708 80.7887 27.8792 81.9703 27.7834C83.1519 27.6876 84.2856 27.6397 85.3714 27.6397V26.7775C85.3714 24.8294 84.8445 23.4562 83.7906 22.6579C82.7687 21.8595 81.1081 21.4603 78.8088 21.4603C76.8288 21.4603 74.769 21.6998 72.6294 22.1788C70.4897 22.6259 68.8132 23.1688 67.5996 23.8075L64.5339 17.2928C66.7055 15.8877 69.5317 14.6582 73.0126 13.6043C76.4935 12.5186 80.0383 11.9757 83.6469 11.9757C86.8404 11.9757 89.475 12.295 91.5508 12.9337C93.6265 13.5405 95.3031 14.5943 96.5805 16.0953C97.8898 17.5643 98.816 19.4484 99.3588 21.7477C99.9017 24.0151 100.173 26.9052 100.173 30.418V49.9143L101.514 53.6506H88.3892L86.8564 49.3873ZM83.0721 46.2258C83.4872 46.2258 83.8704 46.1459 84.2217 45.9863C84.6049 45.7947 84.8924 45.619 85.084 45.4593C85.2756 45.2677 85.3714 45.1719 85.3714 45.1719V33.6754C83.4234 33.6754 81.8745 34.2183 80.7249 35.3041C79.5752 36.3579 79.0004 38.0026 79.0004 40.238C79.0004 44.2299 80.3576 46.2258 83.0721 46.2258ZM121.772 53.6506H106.299V22.6579L103.425 20.8855V15.7599L113.724 12.9337H121.868V19.1131C122.027 18.8896 122.251 18.6021 122.538 18.2509C122.858 17.8676 123.432 17.2768 124.263 16.4785C125.093 15.6801 125.939 14.9775 126.802 14.3708C127.696 13.764 128.766 13.2211 130.011 12.7421C131.288 12.2311 132.55 11.9757 133.795 11.9757C136.989 11.9757 139.432 12.5824 141.124 13.7959C142.817 15.0095 144.014 16.9894 144.717 19.7358C145.803 17.8517 147.463 16.0953 149.699 14.4666C151.966 12.806 154.457 11.9757 157.172 11.9757C160.174 11.9757 162.505 12.5026 164.165 13.5564C165.858 14.5784 167.087 16.3348 167.854 18.8257C168.62 21.3166 169.004 24.8294 169.004 29.3642V53.6506H153.435V27.975C153.435 26.5699 153.1 25.4681 152.429 24.6698C151.759 23.8714 150.737 23.4722 149.364 23.4722C148.437 23.4722 147.176 24.2386 145.579 25.7715C145.675 27.3044 145.723 28.965 145.723 30.7533V53.6506H129.915V27.975C130.011 24.9731 128.734 23.4722 126.083 23.4722C125.891 23.4722 125.7 23.4882 125.508 23.5201C125.349 23.552 125.189 23.584 125.029 23.6159C124.901 23.6478 124.742 23.7117 124.55 23.8075C124.391 23.8714 124.247 23.9353 124.119 23.9991C123.991 24.0311 123.848 24.1109 123.688 24.2386C123.528 24.3344 123.401 24.4143 123.305 24.4782C123.209 24.542 123.065 24.6538 122.874 24.8135C122.714 24.9412 122.586 25.037 122.49 25.1009C122.427 25.1648 122.299 25.2765 122.107 25.4362C121.948 25.5639 121.836 25.6597 121.772 25.7236V53.6506ZM196.574 28.8852C196.574 24.8294 196.366 21.9553 195.951 20.2628C195.536 18.5702 194.769 17.7239 193.651 17.7239C192.693 17.7239 191.911 17.8996 191.304 18.2509C190.697 18.5702 190.25 19.0971 189.963 19.8316C189.676 20.5342 189.484 21.2687 189.388 22.0351C189.324 22.7696 189.292 23.7117 189.292 24.8614V28.8852H196.574ZM192.741 54.6566C189.165 54.6566 186.051 54.1137 183.4 53.0279C180.782 51.9421 178.706 50.4252 177.173 48.4772C175.672 46.5292 174.57 44.3416 173.868 41.9146C173.165 39.4556 172.814 36.7252 172.814 33.7233C172.814 26.5699 174.634 21.1569 178.275 17.4844C181.915 13.8119 187.009 11.9757 193.556 11.9757C199.847 11.9757 204.35 13.4606 207.064 16.4306C209.779 19.3686 211.136 24.1109 211.136 30.6575V35.9747H189.244V36.8848C189.244 38.769 189.436 40.3178 189.819 41.5314C190.234 42.7449 190.825 43.6391 191.592 44.2139C192.358 44.7887 193.141 45.1719 193.939 45.3635C194.737 45.5552 195.711 45.651 196.861 45.651C197.979 45.651 199.176 45.5072 200.454 45.2198C201.763 44.9324 203.072 44.4853 204.382 43.8786C205.723 43.2718 206.841 42.5533 207.735 41.723L210.561 46.5611C209.379 48.4772 207.639 50.0899 205.34 51.3992C203.072 52.6766 200.885 53.5389 198.777 53.986C196.669 54.433 194.657 54.6566 192.741 54.6566Z" fill="#8B5CF6"/>
</g>
<rect width="5.98778" height="11.9756" transform="matrix(-0.974257 -0.225441 -0.225441 0.974257 61.7787 116.983)" fill="#8B5CF6"/>
<rect x="161.026" y="116.983" width="5.98778" height="11.9756" transform="rotate(-13.0288 161.026 116.983)" fill="#8B5CF6"/>
<path d="M206.525 120.873H188.398V56.8638H224.542V70.7906L206.525 69.6983V84.5536H221.311V98.0981L206.525 97.0058V120.873Z" fill="white"/>
<path d="M148.93 112.249V56.8638H167.057V106.236H183.376V112.249H148.93Z" fill="white"/>
<path d="M143.957 112.249H105.13V56.8638H143.136L142.041 69.753L123.257 69.2068V81.5498H138.043V94.3297L123.257 93.2374V107.765L143.957 107.219V112.249Z" fill="white"/>
<path d="M65.659 112.249H47.5324V56.8638H65.659V82.2052H79.7332V56.8638H97.8599V112.249H79.7332V94.7666H65.659V112.249Z" fill="white"/>
<path d="M20.9196 122.019C18.1084 122.019 15.4798 121.765 13.0337 121.255C10.6241 120.781 8.59784 120.144 6.95494 119.343C5.31204 118.542 3.96121 117.778 2.90245 117.049C1.88021 116.321 1.02225 115.593 0.32858 114.865L1.69766 101.593C3.19453 103.596 5.20251 105.344 7.72162 106.836C10.2407 108.293 12.9606 109.021 15.8814 109.021C18.8021 109.021 20.9013 108.712 22.1791 108.093C23.4935 107.474 24.1506 106.345 24.1506 104.706C24.1506 102.959 23.4022 101.466 21.9053 100.228C20.445 98.9901 17.9076 97.4973 14.2932 95.7496C12.9789 95.0943 11.8654 94.5117 10.9527 94.002C10.0399 93.4558 8.81689 92.582 7.28352 91.3804C5.78665 90.1425 4.56361 88.8682 3.61438 87.5574C2.66515 86.2102 1.82544 84.499 1.09527 82.4236C0.365089 80.3118 0 78.0544 0 75.6513C0 62.653 7.35654 56.1538 22.0696 56.1538C24.4062 56.1538 26.5967 56.4087 28.6412 56.9184C30.7222 57.3917 32.3469 57.9197 33.5151 58.5022C34.6834 59.0848 35.7422 59.7766 36.6914 60.5776C37.6771 61.3422 38.2978 61.8884 38.5534 62.2161C38.8089 62.5073 38.9915 62.744 39.101 62.9261L36.3628 73.4667C34.939 71.7919 33.15 70.5539 30.996 69.7529C28.8785 68.9155 26.8523 68.4968 24.9173 68.4968C20.2442 68.4968 17.9076 69.9532 17.9076 72.866C17.9076 73.6306 18.0536 74.3224 18.3457 74.9413C18.6378 75.5603 19.1124 76.1247 19.7695 76.6344C20.4267 77.1441 21.0291 77.5811 21.5767 77.9452C22.1609 78.3093 22.9458 78.7644 23.9316 79.3105C24.9538 79.8203 25.7205 80.239 26.2316 80.5667C31.5619 82.8241 35.4684 85.5002 37.951 88.5951C40.4701 91.6899 41.7296 95.4584 41.7296 99.9004C41.7296 107.11 39.9407 112.607 36.3628 116.394C32.8215 120.144 27.6737 122.019 20.9196 122.019Z" fill="white"/>
<rect x="41.2698" y="115.634" width="143.707" height="2.99389" fill="#8B5CF6"/>
<path d="M39.5562 70.5601C37.0653 70.5601 34.255 69.9853 31.1254 68.8357C27.9958 67.7179 25.968 66.6481 25.0418 65.6262L28.0597 59.0636C28.8581 59.6704 30.1514 60.2292 31.9398 60.7402C33.7281 61.2511 35.261 61.5066 36.5384 61.5066C37.8158 61.5066 38.9175 61.331 39.8436 60.9797C40.8017 60.6603 41.5362 60.2452 42.0471 59.7342C42.5581 59.2552 42.9733 58.6484 43.2926 57.9139C43.612 57.2114 43.8036 56.5727 43.8674 55.9978C43.9632 55.423 44.0271 54.7843 44.059 54.0818V50.0101C41.3446 52.8203 38.0393 54.2255 34.1433 54.2255C28.874 54.2255 25.0099 52.4211 22.5509 48.8125C20.0919 45.2039 18.8624 40.1901 18.8624 33.7712C18.8624 30.7693 19.1978 28.007 19.8684 25.4841C20.539 22.9293 21.513 20.6939 22.7904 18.7778C24.0998 16.8298 25.7923 15.3128 27.8681 14.2271C29.9438 13.1093 32.2911 12.5505 34.9097 12.5505C38.8696 12.5505 42.3026 13.4287 45.2087 15.1851L46.023 12.9337H53.3521L62.3577 13.3648V17.8676L59.4836 19.8795V51.8783C59.4836 64.3328 52.8411 70.5601 39.5562 70.5601ZM41.0891 45.5072C42.0471 45.5072 43.0371 45.2358 44.059 44.6929V19.4484C43.2926 19.2887 42.59 19.2089 41.9513 19.2089C37.704 19.2408 35.5644 22.5142 35.5324 29.0289V36.4537C35.5324 38.4975 35.8039 40.254 36.3468 41.723C37.3048 44.2458 38.8856 45.5072 41.0891 45.5072ZM86.8564 49.3873L86.3773 49.9143C86.058 50.2975 85.563 50.7446 84.8924 51.2555C84.2537 51.7665 83.5032 52.2774 82.641 52.7884C81.8106 53.2994 80.7887 53.7305 79.5752 54.0818C78.3617 54.465 77.1162 54.6566 75.8388 54.6566C67.2164 54.6566 62.9052 50.3933 62.9052 41.8667C62.9052 40.2061 63.2086 38.6892 63.8154 37.316C64.4221 35.9108 65.2045 34.7292 66.1626 33.7712C67.1206 32.8131 68.2703 31.9669 69.6115 31.2324C70.9528 30.4659 72.2941 29.8751 73.6353 29.46C75.0085 29.0129 76.4456 28.6456 77.9465 28.3582C79.4475 28.0708 80.7887 27.8792 81.9703 27.7834C83.1519 27.6876 84.2856 27.6397 85.3714 27.6397V26.7775C85.3714 24.8294 84.8445 23.4562 83.7906 22.6579C82.7687 21.8595 81.1081 21.4603 78.8088 21.4603C76.8288 21.4603 74.769 21.6998 72.6294 22.1788C70.4897 22.6259 68.8132 23.1688 67.5996 23.8075L64.5339 17.2928C66.7055 15.8877 69.5317 14.6582 73.0126 13.6043C76.4935 12.5186 80.0383 11.9757 83.6469 11.9757C86.8404 11.9757 89.475 12.295 91.5508 12.9337C93.6265 13.5405 95.3031 14.5943 96.5805 16.0953C97.8898 17.5643 98.816 19.4484 99.3588 21.7477C99.9017 24.0151 100.173 26.9052 100.173 30.418V49.9143L101.514 53.6506H88.3892L86.8564 49.3873ZM83.0721 46.2258C83.4872 46.2258 83.8704 46.1459 84.2217 45.9863C84.6049 45.7947 84.8924 45.619 85.084 45.4593C85.2756 45.2677 85.3714 45.1719 85.3714 45.1719V33.6754C83.4234 33.6754 81.8745 34.2183 80.7249 35.3041C79.5752 36.3579 79.0004 38.0026 79.0004 40.238C79.0004 44.2299 80.3576 46.2258 83.0721 46.2258ZM121.772 53.6506H106.299V22.6579L103.425 20.8855V15.7599L113.724 12.9337H121.868V19.1131C122.027 18.8896 122.251 18.6021 122.538 18.2509C122.858 17.8676 123.432 17.2768 124.263 16.4785C125.093 15.6801 125.939 14.9775 126.802 14.3708C127.696 13.764 128.766 13.2211 130.011 12.7421C131.288 12.2311 132.55 11.9757 133.795 11.9757C136.989 11.9757 139.432 12.5824 141.124 13.7959C142.817 15.0095 144.014 16.9894 144.717 19.7358C145.803 17.8517 147.463 16.0953 149.699 14.4666C151.966 12.806 154.457 11.9757 157.172 11.9757C160.174 11.9757 162.505 12.5026 164.165 13.5564C165.858 14.5784 167.087 16.3348 167.854 18.8257C168.62 21.3166 169.004 24.8294 169.004 29.3642V53.6506H153.435V27.975C153.435 26.5699 153.1 25.4681 152.429 24.6698C151.759 23.8714 150.737 23.4722 149.364 23.4722C148.437 23.4722 147.176 24.2386 145.579 25.7715C145.675 27.3044 145.723 28.965 145.723 30.7533V53.6506H129.915V27.975C130.011 24.9731 128.734 23.4722 126.083 23.4722C125.891 23.4722 125.7 23.4882 125.508 23.5201C125.349 23.552 125.189 23.584 125.029 23.6159C124.901 23.6478 124.742 23.7117 124.55 23.8075C124.391 23.8714 124.247 23.9353 124.119 23.9991C123.991 24.0311 123.848 24.1109 123.688 24.2386C123.528 24.3344 123.401 24.4143 123.305 24.4782C123.209 24.542 123.065 24.6538 122.874 24.8135C122.714 24.9412 122.586 25.037 122.49 25.1009C122.427 25.1648 122.299 25.2765 122.107 25.4362C121.948 25.5639 121.836 25.6597 121.772 25.7236V53.6506ZM196.574 28.8852C196.574 24.8294 196.366 21.9553 195.951 20.2628C195.536 18.5702 194.769 17.7239 193.651 17.7239C192.693 17.7239 191.911 17.8996 191.304 18.2509C190.697 18.5702 190.25 19.0971 189.963 19.8316C189.676 20.5342 189.484 21.2687 189.388 22.0351C189.324 22.7696 189.292 23.7117 189.292 24.8614V28.8852H196.574ZM192.741 54.6566C189.165 54.6566 186.051 54.1137 183.4 53.0279C180.782 51.9421 178.706 50.4252 177.173 48.4772C175.672 46.5292 174.57 44.3416 173.868 41.9146C173.165 39.4556 172.814 36.7252 172.814 33.7233C172.814 26.5699 174.634 21.1569 178.275 17.4844C181.915 13.8119 187.009 11.9757 193.556 11.9757C199.847 11.9757 204.35 13.4606 207.064 16.4306C209.779 19.3686 211.136 24.1109 211.136 30.6575V35.9747H189.244V36.8848C189.244 38.769 189.436 40.3178 189.819 41.5314C190.234 42.7449 190.825 43.6391 191.592 44.2139C192.358 44.7887 193.141 45.1719 193.939 45.3635C194.737 45.5552 195.711 45.651 196.861 45.651C197.979 45.651 199.176 45.5072 200.454 45.2198C201.763 44.9324 203.072 44.4853 204.382 43.8786C205.723 43.2718 206.841 42.5533 207.735 41.723L210.561 46.5611C209.379 48.4772 207.639 50.0899 205.34 51.3992C203.072 52.6766 200.885 53.5389 198.777 53.986C196.669 54.433 194.657 54.6566 192.741 54.6566Z" fill="#8B5CF6"/>
<defs>
<filter id="filter0_f_114_72" x="6.88686" y="1.81198e-05" width="216.225" height="82.5356" filterUnits="userSpaceOnUse" color-interpolation-filters="sRGB">
<feFlood flood-opacity="0" result="BackgroundImageFix"/>
<feBlend mode="normal" in="SourceGraphic" in2="BackgroundImageFix" result="shape"/>
<feGaussianBlur stdDeviation="5.98778" result="effect1_foregroundBlur_114_72"/>
</filter>
</defs>
</svg>
